<?xml version="1.0" standalone="no"?>
<!DOCTYPE svg PUBLIC "-//W3C//DTD SVG 20010904//EN"
 "http://www.w3.org/TR/2001/REC-SVG-20010904/DTD/svg10.dtd">
<svg version="1.0" xmlns="http://www.w3.org/2000/svg"
 width="700.000000pt" height="700.000000pt" viewBox="0 0 700.000000 700.000000"
 preserveAspectRatio="xMidYMid meet">
<metadata>
Created by potrace 1.11, written by Peter Selinger 2001-2013
</metadata>
<g transform="translate(0.000000,700.000000) scale(0.100000,-0.100000)"
fill="#000000" stroke="none">
<path d="M1000 6942 c-56 -6 -158 -37 -212 -65 -137 -71 -237 -215 -264 -380
-4 -23 -8 -1362 -8 -2976 -1 -2256 2 -2953 11 -3018 31 -216 200 -400 393
-428 3 0 10 -3 15 -6 6 -3 35 -7 65 -9 30 -2 1167 -3 2525 -4 l2470 0 76 22
c149 42 263 132 325 257 68 138 64 -37 64 2576 l0 2366 -56 59 c-31 32 -120
125 -198 205 -159 164 -551 569 -670 692 -43 45 -182 189 -310 321 -127 131
-264 272 -303 314 l-73 77 -1912 0 c-1052 0 -1924 -1 -1938 -3z m4879 -1249
l304 -303 -420 0 c-317 1 -432 4 -470 14 -110 29 -227 117 -274 206 -57 109
-58 118 -59 578 l-1 425 308 -308 c169 -169 445 -444 612 -612z m-1780 -390
c93 -220 105 -249 125 -295 8 -18 51 -121 96 -228 45 -107 88 -208 95 -225 8
-16 39 -91 70 -165 31 -74 65 -154 76 -177 10 -23 19 -45 19 -48 0 -3 9 -25
19 -48 16 -35 161 -377 428 -1012 30 -71 61 -143 68 -160 8 -16 68 -158 133
-315 157 -374 310 -737 327 -775 7 -16 43 -102 80 -190 72 -171 84 -200 108
-255 8 -19 34 -80 57 -135 23 -55 48 -113 55 -130 7 -16 25 -59 40 -95 15 -36
33 -78 41 -95 7 -16 47 -113 90 -215 42 -102 83 -197 91 -212 l14 -28 -558 0
-558 0 -220 553 -221 552 -1058 0 -1058 0 -221 -552 -221 -553 -554 0 c-523 0
-554 1 -549 18 3 9 64 156 137 327 72 171 208 492 302 715 93 223 178 423 188
445 10 22 78 182 151 355 274 651 593 1409 614 1455 7 17 61 145 120 285 59
140 113 269 120 285 8 17 68 161 135 320 67 160 131 310 142 335 11 24 24 56
30 70 17 44 109 263 134 318 13 29 24 57 24 62 0 6 184 10 503 10 l503 0 83
-197z"/>
<path d="M3487 4096 c-29 -72 -223 -540 -236 -571 -5 -11 -26 -60 -46 -110
-21 -49 -43 -103 -50 -120 -7 -16 -61 -147 -120 -290 -59 -143 -125 -302 -146
-352 -21 -51 -37 -94 -36 -94 5 -3 1327 -4 1327 -1 0 4 -41 104 -238 577 -41
99 -94 230 -119 290 -25 61 -51 124 -58 140 -19 43 -175 421 -180 435 -1 3 -6
16 -12 30 -6 14 -19 45 -28 70 -10 25 -21 49 -25 53 -4 5 -19 -21 -33 -57z"/>
</g>
</svg>
