<?xml version="1.0" encoding="utf-8"?>
<!-- Generator: Adobe Illustrator 23.0.1, SVG Export Plug-In . SVG Version: 6.00 Build 0)  -->
<svg version="1.1" id="Layer_1" xmlns="http://www.w3.org/2000/svg" xmlns:xlink="http://www.w3.org/1999/xlink" x="0px" y="0px"
	 viewBox="0 0 190.7 41.3" style="enable-background:new 0 0 190.7 41.3;" xml:space="preserve">
<style type="text/css">
	.st0{fill:#0AC7D9;}
	.st1{fill:#3D5D77;}
	.st2{fill:#FFFFFF;}
</style>
<g>
	<rect x="2.7" y="19.4" class="st1" width="185" height="19.1"/>
	<g>
		<path class="st1" d="M22.1,9.2c-0.2-0.3-0.5-0.5-0.8-0.6c-0.3-0.2-0.7-0.2-1-0.2c-0.2,0-0.3,0-0.5,0c-0.2,0-0.3,0.1-0.4,0.2
			c-0.1,0.1-0.2,0.2-0.3,0.3C19,9,18.9,9.2,18.9,9.4c0,0.2,0,0.3,0.1,0.4c0.1,0.1,0.2,0.2,0.3,0.3s0.3,0.2,0.5,0.2s0.4,0.1,0.6,0.2
			c0.3,0.1,0.7,0.2,1.1,0.4c0.4,0.1,0.7,0.3,1,0.5c0.3,0.2,0.5,0.5,0.7,0.8c0.2,0.3,0.3,0.7,0.3,1.2c0,0.6-0.1,1.1-0.3,1.5
			c-0.2,0.4-0.5,0.8-0.8,1c-0.4,0.3-0.8,0.5-1.2,0.6c-0.5,0.1-0.9,0.2-1.4,0.2c-0.7,0-1.4-0.1-2.1-0.4s-1.2-0.6-1.7-1.1l1.6-1.6
			c0.2,0.3,0.6,0.5,1,0.7c0.4,0.2,0.8,0.3,1.2,0.3c0.2,0,0.4,0,0.5-0.1c0.2,0,0.3-0.1,0.4-0.2s0.2-0.2,0.3-0.3
			c0.1-0.1,0.1-0.3,0.1-0.5c0-0.2,0-0.3-0.1-0.5c-0.1-0.1-0.2-0.2-0.4-0.4s-0.4-0.2-0.6-0.3s-0.5-0.2-0.9-0.3
			c-0.3-0.1-0.6-0.2-0.9-0.4c-0.3-0.1-0.6-0.3-0.8-0.5c-0.2-0.2-0.4-0.5-0.6-0.8c-0.1-0.3-0.2-0.7-0.2-1.1c0-0.6,0.1-1,0.3-1.4
			c0.2-0.4,0.5-0.7,0.9-1c0.4-0.3,0.8-0.4,1.2-0.6c0.5-0.1,0.9-0.2,1.4-0.2c0.6,0,1.1,0.1,1.7,0.3c0.6,0.2,1.1,0.5,1.5,0.9L22.1,9.2
			z"/>
		<path class="st1" d="M30.3,9.2c-0.2-0.3-0.5-0.5-0.8-0.6c-0.3-0.2-0.7-0.2-1-0.2c-0.2,0-0.3,0-0.5,0c-0.2,0-0.3,0.1-0.4,0.2
			c-0.1,0.1-0.2,0.2-0.3,0.3c-0.1,0.1-0.1,0.3-0.1,0.5c0,0.2,0,0.3,0.1,0.4c0.1,0.1,0.2,0.2,0.3,0.3s0.3,0.2,0.5,0.2
			s0.4,0.1,0.6,0.2c0.3,0.1,0.7,0.2,1.1,0.4c0.4,0.1,0.7,0.3,1,0.5c0.3,0.2,0.5,0.5,0.7,0.8c0.2,0.3,0.3,0.7,0.3,1.2
			c0,0.6-0.1,1.1-0.3,1.5c-0.2,0.4-0.5,0.8-0.8,1c-0.4,0.3-0.8,0.5-1.2,0.6c-0.5,0.1-0.9,0.2-1.4,0.2c-0.7,0-1.4-0.1-2.1-0.4
			s-1.2-0.6-1.7-1.1l1.6-1.6c0.2,0.3,0.6,0.5,1,0.7c0.4,0.2,0.8,0.3,1.2,0.3c0.2,0,0.4,0,0.5-0.1c0.2,0,0.3-0.1,0.4-0.2
			s0.2-0.2,0.3-0.3c0.1-0.1,0.1-0.3,0.1-0.5c0-0.2,0-0.3-0.1-0.5c-0.1-0.1-0.2-0.2-0.4-0.4s-0.4-0.2-0.6-0.3s-0.5-0.2-0.9-0.3
			c-0.3-0.1-0.6-0.2-0.9-0.4c-0.3-0.1-0.6-0.3-0.8-0.5c-0.2-0.2-0.4-0.5-0.6-0.8c-0.1-0.3-0.2-0.7-0.2-1.1c0-0.6,0.1-1,0.3-1.4
			c0.2-0.4,0.5-0.7,0.9-1c0.4-0.3,0.8-0.4,1.2-0.6c0.5-0.1,0.9-0.2,1.4-0.2c0.6,0,1.1,0.1,1.7,0.3c0.6,0.2,1.1,0.5,1.5,0.9L30.3,9.2
			z"/>
		<path class="st1" d="M33.4,16.6V6.7H40v2h-4.4v1.9h4.1v1.9h-4.1v2.1h4.6v2H33.4z"/>
		<path class="st1" d="M47.1,9.2c-0.2-0.3-0.5-0.5-0.8-0.6c-0.3-0.2-0.7-0.2-1-0.2c-0.2,0-0.3,0-0.5,0c-0.2,0-0.3,0.1-0.4,0.2
			c-0.1,0.1-0.2,0.2-0.3,0.3C44,9,44,9.2,44,9.4c0,0.2,0,0.3,0.1,0.4c0.1,0.1,0.2,0.2,0.3,0.3s0.3,0.2,0.5,0.2s0.4,0.1,0.6,0.2
			c0.3,0.1,0.7,0.2,1.1,0.4c0.4,0.1,0.7,0.3,1,0.5c0.3,0.2,0.5,0.5,0.7,0.8c0.2,0.3,0.3,0.7,0.3,1.2c0,0.6-0.1,1.1-0.3,1.5
			c-0.2,0.4-0.5,0.8-0.8,1c-0.4,0.3-0.8,0.5-1.2,0.6c-0.5,0.1-0.9,0.2-1.4,0.2c-0.7,0-1.4-0.1-2.1-0.4s-1.2-0.6-1.7-1.1l1.6-1.6
			c0.2,0.3,0.6,0.5,1,0.7c0.4,0.2,0.8,0.3,1.2,0.3c0.2,0,0.4,0,0.5-0.1c0.2,0,0.3-0.1,0.4-0.2s0.2-0.2,0.3-0.3
			c0.1-0.1,0.1-0.3,0.1-0.5c0-0.2,0-0.3-0.1-0.5c-0.1-0.1-0.2-0.2-0.4-0.4s-0.4-0.2-0.6-0.3s-0.5-0.2-0.9-0.3
			c-0.3-0.1-0.6-0.2-0.9-0.4c-0.3-0.1-0.6-0.3-0.8-0.5c-0.2-0.2-0.4-0.5-0.6-0.8c-0.1-0.3-0.2-0.7-0.2-1.1c0-0.6,0.1-1,0.3-1.4
			c0.2-0.4,0.5-0.7,0.9-1c0.4-0.3,0.8-0.4,1.2-0.6c0.5-0.1,0.9-0.2,1.4-0.2c0.6,0,1.1,0.1,1.7,0.3c0.6,0.2,1.1,0.5,1.5,0.9L47.1,9.2
			z"/>
		<path class="st1" d="M55.4,9.2c-0.2-0.3-0.5-0.5-0.8-0.6s-0.7-0.2-1-0.2c-0.2,0-0.3,0-0.5,0c-0.2,0-0.3,0.1-0.4,0.2
			c-0.1,0.1-0.2,0.2-0.3,0.3c-0.1,0.1-0.1,0.3-0.1,0.5c0,0.2,0,0.3,0.1,0.4c0.1,0.1,0.2,0.2,0.3,0.3s0.3,0.2,0.5,0.2
			c0.2,0.1,0.4,0.1,0.6,0.2c0.3,0.1,0.7,0.2,1.1,0.4c0.4,0.1,0.7,0.3,1,0.5c0.3,0.2,0.5,0.5,0.7,0.8c0.2,0.3,0.3,0.7,0.3,1.2
			c0,0.6-0.1,1.1-0.3,1.5c-0.2,0.4-0.5,0.8-0.8,1c-0.4,0.3-0.8,0.5-1.2,0.6c-0.5,0.1-0.9,0.2-1.4,0.2c-0.7,0-1.4-0.1-2.1-0.4
			s-1.2-0.6-1.7-1.1l1.6-1.6c0.2,0.3,0.6,0.5,1,0.7c0.4,0.2,0.8,0.3,1.2,0.3c0.2,0,0.4,0,0.5-0.1c0.2,0,0.3-0.1,0.4-0.2
			s0.2-0.2,0.3-0.3c0.1-0.1,0.1-0.3,0.1-0.5c0-0.2,0-0.3-0.1-0.5c-0.1-0.1-0.2-0.2-0.4-0.4s-0.4-0.2-0.6-0.3s-0.5-0.2-0.9-0.3
			c-0.3-0.1-0.6-0.2-0.9-0.4c-0.3-0.1-0.6-0.3-0.8-0.5c-0.2-0.2-0.4-0.5-0.6-0.8c-0.1-0.3-0.2-0.7-0.2-1.1c0-0.6,0.1-1,0.3-1.4
			c0.2-0.4,0.5-0.7,0.9-1c0.4-0.3,0.8-0.4,1.2-0.6c0.5-0.1,0.9-0.2,1.4-0.2c0.6,0,1.1,0.1,1.7,0.3c0.6,0.2,1.1,0.5,1.5,0.9L55.4,9.2
			z"/>
		<path class="st1" d="M67.4,16.6l0.1-7h0l-2.6,7h-1.7l-2.5-7h0l0.1,7h-2.3V6.7h3.4l2.3,6.4h0.1l2.2-6.4h3.5v9.9H67.4z"/>
		<path class="st1" d="M71.8,16.6V6.7h6.7v2h-4.4v1.9h4.1v1.9h-4.1v2.1h4.6v2H71.8z"/>
		<path class="st1" d="M86.6,16.6l-4-6.5h0l0.1,6.5h-2.3V6.7H83l4,6.5h0L87,6.7h2.3v9.9H86.6z"/>
		<path class="st1" d="M95.6,8.7v7.9h-2.4V8.7h-2.8v-2h8v2H95.6z"/>
		<path class="st1" d="M109.7,16.6l-0.9-1c-0.3,0.3-0.7,0.6-1.2,0.8c-0.5,0.2-1,0.3-1.7,0.3c-0.4,0-0.9-0.1-1.3-0.2
			c-0.4-0.1-0.8-0.3-1.1-0.5c-0.3-0.2-0.6-0.6-0.8-0.9c-0.2-0.4-0.3-0.8-0.3-1.3c0-0.3,0.1-0.7,0.2-1s0.3-0.5,0.5-0.8
			c0.2-0.2,0.4-0.4,0.7-0.6s0.5-0.3,0.8-0.4c-0.3-0.3-0.6-0.6-0.7-1c-0.2-0.4-0.3-0.7-0.3-1.2c0-0.4,0.1-0.8,0.3-1.1
			s0.4-0.6,0.7-0.8s0.6-0.4,1-0.4c0.4-0.1,0.7-0.1,1.1-0.1c0.4,0,0.7,0,1.1,0.1c0.4,0.1,0.7,0.2,1,0.5c0.3,0.2,0.5,0.5,0.7,0.8
			s0.3,0.7,0.3,1.1c0,0.3-0.1,0.6-0.2,0.9c-0.1,0.3-0.2,0.5-0.4,0.7c-0.2,0.2-0.4,0.4-0.6,0.6c-0.2,0.2-0.5,0.3-0.8,0.5l1.2,1.3
			l1-1.5h2.5l-2.1,2.9l2.5,2.5H109.7z M105.6,12.4c-0.3,0.1-0.5,0.3-0.7,0.5c-0.2,0.2-0.3,0.5-0.3,0.9c0,0.2,0,0.4,0.1,0.5
			s0.2,0.3,0.3,0.4c0.1,0.1,0.3,0.2,0.4,0.2c0.2,0.1,0.3,0.1,0.5,0.1c0.3,0,0.6-0.1,0.8-0.2c0.2-0.1,0.5-0.3,0.6-0.6L105.6,12.4z
			 M107.4,9c0-0.3-0.1-0.5-0.3-0.6c-0.2-0.2-0.4-0.3-0.7-0.3c-0.3,0-0.5,0.1-0.7,0.3c-0.2,0.2-0.3,0.4-0.3,0.7
			c0,0.2,0.1,0.5,0.2,0.7s0.3,0.4,0.6,0.6c0.3-0.1,0.6-0.3,0.8-0.5C107.3,9.5,107.4,9.3,107.4,9z"/>
		<path class="st1" d="M137.4,16.6l-4-6.5h0l0.1,6.5h-2.3V6.7h2.7l4,6.5h0l-0.1-6.5h2.3v9.9H137.4z"/>
		<path class="st1" d="M148.9,16.6l-0.8-1.9h-3.8l-0.7,1.9h-2.6l4.2-9.9h2.3l4.1,9.9H148.9z M146.2,9.3l-1.3,3.4h2.5L146.2,9.3z"/>
		<path class="st1" d="M152.4,16.6V6.7h2.4v7.8h3.8v2.1H152.4z"/>
		<path class="st1" d="M163.5,12.4v4.2h-2.4v-4.2l-3.7-5.7h2.9l2.1,3.7l2.1-3.7h2.8L163.5,12.4z"/>
		<path class="st1" d="M173.2,9.2c-0.2-0.3-0.5-0.5-0.8-0.6s-0.7-0.2-1-0.2c-0.2,0-0.3,0-0.5,0c-0.2,0-0.3,0.1-0.4,0.2
			c-0.1,0.1-0.2,0.2-0.3,0.3s-0.1,0.3-0.1,0.5c0,0.2,0,0.3,0.1,0.4c0.1,0.1,0.2,0.2,0.3,0.3c0.1,0.1,0.3,0.2,0.5,0.2
			s0.4,0.1,0.6,0.2c0.3,0.1,0.7,0.2,1,0.4c0.4,0.1,0.7,0.3,1,0.5s0.5,0.5,0.7,0.8s0.3,0.7,0.3,1.2c0,0.6-0.1,1.1-0.3,1.5
			c-0.2,0.4-0.5,0.8-0.8,1s-0.8,0.5-1.2,0.6c-0.5,0.1-0.9,0.2-1.4,0.2c-0.7,0-1.4-0.1-2.1-0.4c-0.7-0.2-1.2-0.6-1.7-1.1l1.6-1.6
			c0.2,0.3,0.6,0.5,1,0.7c0.4,0.2,0.8,0.3,1.2,0.3c0.2,0,0.3,0,0.5-0.1c0.2,0,0.3-0.1,0.4-0.2s0.2-0.2,0.3-0.3
			c0.1-0.1,0.1-0.3,0.1-0.5c0-0.2,0-0.3-0.1-0.5c-0.1-0.1-0.2-0.2-0.4-0.4s-0.4-0.2-0.6-0.3c-0.3-0.1-0.5-0.2-0.9-0.3
			c-0.3-0.1-0.6-0.2-0.9-0.4c-0.3-0.1-0.6-0.3-0.8-0.5c-0.2-0.2-0.4-0.5-0.6-0.8s-0.2-0.7-0.2-1.1c0-0.6,0.1-1,0.3-1.4
			c0.2-0.4,0.5-0.7,0.9-1c0.4-0.3,0.8-0.4,1.2-0.6c0.5-0.1,0.9-0.2,1.4-0.2c0.6,0,1.1,0.1,1.7,0.3c0.6,0.2,1.1,0.5,1.5,0.9
			L173.2,9.2z"/>
		<path class="st1" d="M176.3,16.6V6.7h2.4v9.9H176.3z"/>
		<path class="st1" d="M186,9.2c-0.2-0.3-0.5-0.5-0.8-0.6s-0.7-0.2-1-0.2c-0.2,0-0.3,0-0.5,0c-0.2,0-0.3,0.1-0.4,0.2
			c-0.1,0.1-0.2,0.2-0.3,0.3s-0.1,0.3-0.1,0.5c0,0.2,0,0.3,0.1,0.4c0.1,0.1,0.2,0.2,0.3,0.3c0.1,0.1,0.3,0.2,0.5,0.2
			s0.4,0.1,0.6,0.2c0.3,0.1,0.7,0.2,1,0.4c0.4,0.1,0.7,0.3,1,0.5s0.5,0.5,0.7,0.8s0.3,0.7,0.3,1.2c0,0.6-0.1,1.1-0.3,1.5
			c-0.2,0.4-0.5,0.8-0.8,1s-0.8,0.5-1.2,0.6c-0.5,0.1-0.9,0.2-1.4,0.2c-0.7,0-1.4-0.1-2.1-0.4c-0.7-0.2-1.2-0.6-1.7-1.1l1.6-1.6
			c0.2,0.3,0.6,0.5,1,0.7c0.4,0.2,0.8,0.3,1.2,0.3c0.2,0,0.3,0,0.5-0.1c0.2,0,0.3-0.1,0.4-0.2s0.2-0.2,0.3-0.3
			c0.1-0.1,0.1-0.3,0.1-0.5c0-0.2,0-0.3-0.1-0.5c-0.1-0.1-0.2-0.2-0.4-0.4s-0.4-0.2-0.6-0.3c-0.3-0.1-0.5-0.2-0.9-0.3
			c-0.3-0.1-0.6-0.2-0.9-0.4c-0.3-0.1-0.6-0.3-0.8-0.5c-0.2-0.2-0.4-0.5-0.6-0.8s-0.2-0.7-0.2-1.1c0-0.6,0.1-1,0.3-1.4
			c0.2-0.4,0.5-0.7,0.9-1c0.4-0.3,0.8-0.4,1.2-0.6c0.5-0.1,0.9-0.2,1.4-0.2c0.6,0,1.1,0.1,1.7,0.3c0.6,0.2,1.1,0.5,1.5,0.9L186,9.2z
			"/>
	</g>
	<g>
		<path class="st2" d="M7.7,28.5L7.7,28.5l3.1-2.9h0.9l-3.3,3l3.5,3.6h-1l-3.3-3.5h0v3.5H7v-6.5h0.7V28.5z"/>
		<path class="st2" d="M17.4,31.2L17.4,31.2l0-5.6h0.7v6.5h-0.8l-3.8-5.6h0v5.6h-0.7v-6.5h0.8L17.4,31.2z"/>
		<path class="st2" d="M26.3,28.9c0,0.5-0.1,1-0.3,1.4c-0.2,0.4-0.4,0.8-0.7,1.1c-0.3,0.3-0.7,0.5-1.1,0.7c-0.4,0.2-0.9,0.3-1.3,0.3
			s-0.9-0.1-1.4-0.3c-0.4-0.2-0.8-0.4-1.1-0.7c-0.3-0.3-0.5-0.7-0.7-1.1s-0.3-0.9-0.3-1.4c0-0.5,0.1-1,0.3-1.4s0.4-0.8,0.7-1.1
			c0.3-0.3,0.7-0.5,1.1-0.7c0.4-0.2,0.9-0.3,1.4-0.3s0.9,0.1,1.3,0.3c0.4,0.2,0.8,0.4,1.1,0.7c0.3,0.3,0.5,0.7,0.7,1.1
			C26.2,27.9,26.3,28.4,26.3,28.9z M25.6,28.9c0-0.4-0.1-0.7-0.2-1.1c-0.1-0.3-0.3-0.6-0.5-0.9c-0.2-0.3-0.5-0.5-0.9-0.6
			c-0.3-0.2-0.7-0.2-1.1-0.2c-0.4,0-0.8,0.1-1.1,0.2s-0.6,0.4-0.9,0.6c-0.2,0.3-0.4,0.6-0.5,0.9s-0.2,0.7-0.2,1.1
			c0,0.4,0.1,0.7,0.2,1.1c0.1,0.3,0.3,0.6,0.5,0.9c0.2,0.3,0.5,0.5,0.9,0.6s0.7,0.2,1.1,0.2c0.4,0,0.8-0.1,1.1-0.2
			c0.3-0.2,0.6-0.4,0.9-0.6c0.2-0.3,0.4-0.6,0.5-0.9C25.5,29.6,25.6,29.3,25.6,28.9z"/>
		<path class="st2" d="M29.2,31.2L29.2,31.2l1.6-5.6h0.8l1.6,5.6h0l1.6-5.6h0.7l-1.9,6.5h-0.8l-1.6-5.6h0l-1.6,5.6h-0.8l-1.9-6.5
			h0.7L29.2,31.2z"/>
		<path class="st2" d="M37.3,31.6h3v0.6h-3.7v-6.5h0.7V31.6z"/>
		<path class="st2" d="M42,31.6h3.5v0.6h-4.2v-6.5h4v0.6H42v2.2h3.2V29H42V31.6z"/>
		<path class="st2" d="M46.8,25.6h2.2c0.4,0,0.8,0.1,1.2,0.2c0.4,0.1,0.8,0.3,1.1,0.6s0.6,0.6,0.8,1c0.2,0.4,0.3,0.9,0.3,1.4
			c0,0.5-0.1,1-0.3,1.4c-0.2,0.4-0.5,0.7-0.8,1s-0.7,0.5-1.1,0.6c-0.4,0.1-0.8,0.2-1.2,0.2h-2.2V25.6z M47.4,31.6h1.3
			c0.5,0,0.9-0.1,1.3-0.2c0.4-0.2,0.7-0.4,0.9-0.6c0.2-0.2,0.4-0.5,0.5-0.9s0.2-0.6,0.2-1s-0.1-0.7-0.2-1c-0.1-0.3-0.3-0.6-0.5-0.9
			c-0.2-0.2-0.5-0.5-0.9-0.6c-0.4-0.2-0.8-0.2-1.3-0.2h-1.3V31.6z"/>
		<path class="st2" d="M58.7,26.8c-0.2-0.2-0.5-0.4-0.8-0.6S57.2,26,56.8,26c-0.4,0-0.8,0.1-1.1,0.2c-0.3,0.2-0.6,0.4-0.9,0.6
			c-0.2,0.3-0.4,0.6-0.5,0.9s-0.2,0.7-0.2,1.1c0,0.4,0.1,0.7,0.2,1.1c0.1,0.3,0.3,0.6,0.5,0.9c0.2,0.3,0.5,0.5,0.9,0.6
			c0.3,0.2,0.7,0.2,1.1,0.2c0.4,0,0.7,0,1-0.1c0.3-0.1,0.6-0.2,0.7-0.3v-2H57v-0.6h2.2v2.9c-0.4,0.2-0.7,0.4-1.2,0.5
			c-0.4,0.1-0.8,0.2-1.3,0.2c-0.5,0-0.9-0.1-1.4-0.3c-0.4-0.2-0.8-0.4-1.1-0.7c-0.3-0.3-0.5-0.7-0.7-1.1s-0.3-0.9-0.3-1.4
			c0-0.5,0.1-1,0.3-1.4c0.2-0.4,0.4-0.8,0.7-1.1c0.3-0.3,0.7-0.5,1.1-0.7c0.4-0.2,0.9-0.3,1.3-0.3c0.5,0,1,0.1,1.4,0.2
			c0.4,0.2,0.7,0.4,1,0.7L58.7,26.8z"/>
		<path class="st2" d="M61.6,31.6h3.5v0.6h-4.2v-6.5h4v0.6h-3.4v2.2h3.2V29h-3.2V31.6z"/>
		<path class="st2" d="M71.9,31L71.9,31l2.2-5.4h1v6.5h-0.7v-5.7h0l-2.4,5.7h-0.3l-2.4-5.7h0v5.7h-0.7v-6.5h1L71.9,31z"/>
		<path class="st2" d="M76.8,32.1h-0.7l2.8-6.5h0.6l2.8,6.5h-0.7l-0.7-1.7h-3.4L76.8,32.1z M77.7,29.8h2.9l-1.4-3.5L77.7,29.8z"/>
		<path class="st2" d="M87.9,31.2L87.9,31.2l0-5.6h0.7v6.5h-0.8L84,26.5h0v5.6h-0.7v-6.5h0.8L87.9,31.2z"/>
		<path class="st2" d="M90.3,32.1h-0.7l2.8-6.5H93l2.8,6.5h-0.7l-0.7-1.7H91L90.3,32.1z M91.2,29.8h2.9l-1.4-3.5L91.2,29.8z"/>
		<path class="st2" d="M101.6,26.8c-0.2-0.2-0.5-0.4-0.8-0.6s-0.7-0.2-1.1-0.2c-0.4,0-0.8,0.1-1.1,0.2c-0.3,0.2-0.6,0.4-0.9,0.6
			c-0.2,0.3-0.4,0.6-0.5,0.9S97,28.5,97,28.9c0,0.4,0.1,0.7,0.2,1.1c0.1,0.3,0.3,0.6,0.5,0.9c0.2,0.3,0.5,0.5,0.9,0.6
			c0.3,0.2,0.7,0.2,1.1,0.2c0.4,0,0.7,0,1-0.1c0.3-0.1,0.6-0.2,0.7-0.3v-2h-1.5v-0.6h2.2v2.9c-0.4,0.2-0.7,0.4-1.2,0.5
			c-0.4,0.1-0.8,0.2-1.3,0.2c-0.5,0-0.9-0.1-1.4-0.3c-0.4-0.2-0.8-0.4-1.1-0.7c-0.3-0.3-0.5-0.7-0.7-1.1s-0.3-0.9-0.3-1.4
			c0-0.5,0.1-1,0.3-1.4c0.2-0.4,0.4-0.8,0.7-1.1c0.3-0.3,0.7-0.5,1.1-0.7c0.4-0.2,0.9-0.3,1.3-0.3c0.5,0,1,0.1,1.4,0.2
			c0.4,0.2,0.7,0.4,1,0.7L101.6,26.8z"/>
		<path class="st2" d="M104.4,31.6h3.5v0.6h-4.2v-6.5h4v0.6h-3.4v2.2h3.2V29h-3.2V31.6z"/>
		<path class="st2" d="M112.5,31L112.5,31l2.2-5.4h1v6.5H115v-5.7h0l-2.4,5.7h-0.3l-2.4-5.7h0v5.7h-0.7v-6.5h1L112.5,31z"/>
		<path class="st2" d="M118.1,31.6h3.5v0.6h-4.2v-6.5h4v0.6h-3.4v2.2h3.2V29h-3.2V31.6z"/>
		<path class="st2" d="M127.5,31.2L127.5,31.2l0-5.6h0.7v6.5h-0.8l-3.8-5.6h0v5.6h-0.7v-6.5h0.8L127.5,31.2z"/>
		<path class="st2" d="M132,32.1h-0.7v-5.9h-2.2v-0.6h5v0.6H132V32.1z"/>
		<path class="st2" d="M137.2,25.6h1.8c0.3,0,0.6,0,0.9,0.1c0.3,0.1,0.5,0.2,0.7,0.3s0.3,0.3,0.4,0.5c0.1,0.2,0.2,0.5,0.2,0.8
			s-0.1,0.6-0.2,0.8s-0.3,0.4-0.5,0.5c-0.2,0.1-0.4,0.3-0.7,0.3c-0.3,0.1-0.6,0.1-0.9,0.1h-1.2v3h-0.7V25.6z M137.9,28.5h1.1
			c0.5,0,0.9-0.1,1.2-0.3c0.3-0.2,0.4-0.5,0.4-0.9c0-0.4-0.1-0.7-0.4-0.9s-0.7-0.3-1.2-0.3h-1.1V28.5z"/>
		<path class="st2" d="M143.2,31.6h3v0.6h-3.7v-6.5h0.7V31.6z"/>
		<path class="st2" d="M147.2,32.1h-0.7l2.8-6.5h0.6l2.8,6.5H152l-0.7-1.7h-3.4L147.2,32.1z M148.2,29.8h2.9l-1.4-3.5L148.2,29.8z"
			/>
		<path class="st2" d="M155.3,32.1h-0.7v-5.9h-2.2v-0.6h5v0.6h-2.2V32.1z"/>
		<path class="st2" d="M159.1,32.1h-0.7v-6.5h3.9v0.6h-3.3v2.3h3v0.6h-3V32.1z"/>
		<path class="st2" d="M170.1,28.9c0,0.5-0.1,1-0.3,1.4s-0.4,0.8-0.7,1.1c-0.3,0.3-0.7,0.5-1.1,0.7c-0.4,0.2-0.9,0.3-1.3,0.3
			s-0.9-0.1-1.3-0.3c-0.4-0.2-0.8-0.4-1.1-0.7c-0.3-0.3-0.5-0.7-0.7-1.1c-0.2-0.4-0.3-0.9-0.3-1.4c0-0.5,0.1-1,0.3-1.4
			c0.2-0.4,0.4-0.8,0.7-1.1c0.3-0.3,0.7-0.5,1.1-0.7c0.4-0.2,0.9-0.3,1.3-0.3s0.9,0.1,1.3,0.3c0.4,0.2,0.8,0.4,1.1,0.7
			c0.3,0.3,0.5,0.7,0.7,1.1S170.1,28.4,170.1,28.9z M169.4,28.9c0-0.4-0.1-0.7-0.2-1.1c-0.1-0.3-0.3-0.6-0.5-0.9
			c-0.2-0.3-0.5-0.5-0.9-0.6s-0.7-0.2-1.1-0.2s-0.8,0.1-1.1,0.2s-0.6,0.4-0.9,0.6c-0.2,0.3-0.4,0.6-0.5,0.9s-0.2,0.7-0.2,1.1
			c0,0.4,0.1,0.7,0.2,1.1c0.1,0.3,0.3,0.6,0.5,0.9c0.2,0.3,0.5,0.5,0.9,0.6s0.7,0.2,1.1,0.2s0.8-0.1,1.1-0.2s0.6-0.4,0.9-0.6
			c0.2-0.3,0.4-0.6,0.5-0.9C169.3,29.6,169.4,29.3,169.4,28.9z"/>
		<path class="st2" d="M172.1,32.1h-0.7v-6.5h1.9c0.3,0,0.6,0,0.9,0.1s0.5,0.2,0.7,0.3c0.2,0.1,0.4,0.3,0.5,0.5
			c0.1,0.2,0.2,0.5,0.2,0.8c0,0.2,0,0.5-0.1,0.7c-0.1,0.2-0.2,0.4-0.4,0.5s-0.3,0.3-0.5,0.3c-0.2,0.1-0.4,0.1-0.7,0.2l1.9,3.1H175
			l-1.8-3h-1.1V32.1z M172.1,28.5h1.2c0.5,0,0.9-0.1,1.2-0.3s0.4-0.5,0.4-0.9c0-0.2,0-0.4-0.1-0.5c-0.1-0.1-0.2-0.3-0.3-0.4
			c-0.1-0.1-0.3-0.2-0.5-0.2c-0.2,0-0.4-0.1-0.7-0.1h-1.2V28.5z"/>
		<path class="st2" d="M180.2,31L180.2,31l2.2-5.4h1v6.5h-0.7v-5.7h0l-2.4,5.7H180l-2.4-5.7h0v5.7H177v-6.5h1L180.2,31z"/>
	</g>
	<g>
		<path class="st0" d="M11.3,3.6l-7.7,0C2.9,3.6,2.5,4,2.5,4.7v11.9c0,0.7,0.5,1.1,1.1,1.1h9.9c0.7,0,1.1-0.5,1.1-1.1V7L11.3,3.6z
			 M11.3,16.3l-0.8-2.1h-4l-0.8,2.1H3.6l4.1-9.4h1.9l4,9.4H11.3z M12.2,7.2c-0.6,0-1-0.4-1-1V4.4L14,7.2H12.2z"/>
		<polygon class="st0" points="7.4,12.5 9.9,12.5 8.6,9.4 		"/>
	</g>
	<g>
		<path class="st0" d="M125.9,3.6l-7.7,0c-0.7,0-1.1,0.5-1.1,1.1v11.9c0,0.7,0.5,1.1,1.1,1.1h9.9c0.7,0,1.1-0.5,1.1-1.1V7L125.9,3.6
			z M126,16.3l-0.8-2.1h-4l-0.8,2.1h-2.1l4.1-9.4h1.9l4,9.4H126z M126.8,7.2c-0.6,0-1-0.4-1-1V4.4l2.9,2.9H126.8z"/>
		<polygon class="st0" points="122,12.5 124.5,12.5 123.3,9.4 		"/>
	</g>
</g>
</svg>
